# 3ds Max Wavefront OBJ Exporter v0.97b - (c)2007 guruware
# File Created: 24.06.2020 09:45:23

mtllib Caneton.mtl

#
# object Box003
#

v  -0.0805 0.0179 0.0176
v  -0.0724 0.0030 0.0119
v  -0.0405 0.0030 0.0207
v  -0.0315 0.0179 0.0267
v  -0.0752 0.0307 0.0101
v  -0.0685 0.0418 0.0013
v  -0.0485 0.0381 0.0077
v  0.0016 0.0030 0.0234
v  -0.0061 0.0179 0.0285
v  -0.0188 0.0395 0.0154
v  -0.0360 0.0499 -0.0052
v  0.0122 0.0333 0.0117
v  0.0189 0.0179 0.0251
v  0.0328 0.0034 0.0140
v  0.0427 0.0141 0.0160
v  0.0413 0.0255 -0.0052
v  0.0748 0.0411 -0.0052
v  0.0698 0.0158 -0.0052
v  0.0764 0.0079 -0.0052
v  -0.0860 0.0179 -0.0052
v  -0.0787 0.0307 -0.0052
v  -0.0696 0.0420 -0.0052
v  -0.0155 0.0538 -0.0052
v  0.0160 0.0446 -0.0052
v  -0.0679 0.0557 0.0032
v  -0.0694 0.0557 -0.0052
v  -0.0502 0.0603 0.0096
v  -0.0398 0.0637 -0.0052
v  -0.0428 0.0622 0.0071
v  -0.0791 0.0670 0.0037
v  -0.0806 0.0668 -0.0052
v  -0.0436 0.0795 0.0071
v  -0.0539 0.0768 0.0106
v  -0.0406 0.0810 -0.0052
v  -0.0515 0.0898 -0.0052
v  -0.0530 0.0873 0.0071
v  -0.0711 0.0911 -0.0052
v  -0.0704 0.0883 0.0071
v  -0.1123 0.0636 -0.0003
v  -0.1123 0.0636 -0.0052
v  -0.0839 0.0758 -0.0007
v  -0.1123 0.0683 -0.0021
v  -0.0798 0.0790 0.0020
v  -0.0839 0.0765 -0.0052
v  -0.1123 0.0689 -0.0052
v  -0.0687 0.0768 0.0110
v  -0.0763 0.0030 -0.0052
v  -0.0389 0.0030 -0.0052
v  -0.0066 0.0030 -0.0052
v  0.0314 0.0033 -0.0052
v  -0.0805 0.0179 -0.0289
v  -0.0405 0.0030 -0.0311
v  -0.0724 0.0030 -0.0232
v  -0.0315 0.0179 -0.0371
v  -0.0752 0.0307 -0.0205
v  -0.0685 0.0418 -0.0117
v  -0.0485 0.0381 -0.0181
v  -0.0061 0.0179 -0.0389
v  0.0016 0.0030 -0.0338
v  -0.0188 0.0395 -0.0258
v  0.0122 0.0333 -0.0221
v  0.0189 0.0179 -0.0355
v  0.0427 0.0141 -0.0264
v  0.0328 0.0034 -0.0244
v  -0.0679 0.0557 -0.0136
v  -0.0502 0.0603 -0.0200
v  -0.0428 0.0622 -0.0175
v  -0.0791 0.0670 -0.0141
v  -0.0539 0.0768 -0.0210
v  -0.0436 0.0795 -0.0175
v  -0.0530 0.0873 -0.0175
v  -0.0704 0.0883 -0.0175
v  -0.1123 0.0636 -0.0101
v  -0.1123 0.0683 -0.0083
v  -0.0839 0.0758 -0.0097
v  -0.0798 0.0790 -0.0124
v  -0.0687 0.0768 -0.0214
# 77 vertices

vn -0.2355 -0.4576 0.8574
vn -0.1748 -0.2763 0.9450
vn -0.1520 0.5489 0.8219
vn -0.1169 0.6544 0.7470
vn -0.1082 0.6302 0.7689
vn -0.0617 -0.3417 0.9378
vn -0.0669 -0.3525 0.9334
vn -0.0624 0.4898 0.8696
vn -0.2330 0.5535 0.7996
vn -0.1825 0.8075 0.5609
vn 0.2127 0.5944 0.7755
vn 0.1298 -0.2587 0.9572
vn 0.0988 0.6781 0.7283
vn 0.2681 -0.4097 0.8719
vn 0.2665 -0.4111 0.8717
vn 0.4941 0.6837 0.5371
vn -0.3730 0.8054 0.4607
vn 0.6171 -0.1240 0.7771
vn 0.5332 0.4472 0.7181
vn 0.3908 -0.5062 0.7688
vn -0.8546 0.4763 0.2070
vn -0.8500 0.4905 0.1919
vn -0.7754 0.6067 0.1751
vn -0.7721 0.6171 0.1522
vn 0.2265 0.7837 0.5784
vn 0.2278 0.7843 0.5770
vn 0.5003 0.6626 0.5574
vn -0.9849 0.0143 0.1724
vn -0.9854 0.0130 0.1695
vn -0.3205 -0.1059 0.9413
vn -0.3101 -0.1173 0.9435
vn 0.9304 0.2611 0.2574
vn 0.3355 -0.0579 0.9403
vn -0.7031 -0.7004 0.1230
vn -0.7004 -0.7021 0.1282
vn 0.3194 0.0137 0.9475
vn 0.3165 0.0148 0.9485
vn 0.9697 0.0416 0.2406
vn 0.9698 0.0416 0.2405
vn 0.6095 0.7565 0.2373
vn 0.6222 0.7502 0.2239
vn 0.0623 0.9772 0.2028
vn 0.0551 0.9755 0.2128
vn 0.2372 0.2860 0.9284
vn 0.1025 -0.9947 0.0000
vn 0.1025 -0.9947 -0.0000
vn -0.1484 0.3731 0.9158
vn -0.1430 0.3608 0.9216
vn -0.5920 0.0767 0.8023
vn -0.2612 0.9528 0.1549
vn -0.2564 0.9484 0.1867
vn -0.6627 0.7392 0.1202
vn -0.7395 0.6439 0.1961
vn -0.7367 0.6497 0.1875
vn -0.5975 0.1773 0.7820
vn 0.0182 0.3220 0.9466
vn 0.0265 0.3109 0.9501
vn -0.2387 -0.3428 0.9086
vn 0.0257 -0.0541 0.9982
vn -0.3057 -0.3385 0.8899
vn -0.6185 0.0724 0.7825
vn -1.0000 0.0000 -0.0000
vn 0.0000 -1.0000 -0.0000
vn 0.0078 -1.0000 -0.0022
vn 0.0134 -0.9999 0.0036
vn 0.1011 -0.9949 -0.0032
vn -0.2131 -0.4493 -0.8676
vn -0.1569 -0.2871 -0.9450
vn -0.1327 0.5859 -0.7995
vn -0.1169 0.6544 -0.7470
vn -0.1082 0.6302 -0.7689
vn -0.0669 -0.3525 -0.9334
vn -0.0617 -0.3417 -0.9378
vn -0.0624 0.4898 -0.8696
vn -0.2330 0.5535 -0.7996
vn -0.1825 0.8075 -0.5609
vn 0.2127 0.5944 -0.7755
vn 0.1298 -0.2587 -0.9572
vn 0.0988 0.6781 -0.7283
vn 0.2665 -0.4111 -0.8717
vn 0.2681 -0.4097 -0.8719
vn 0.4941 0.6837 -0.5371
vn -0.3730 0.8054 -0.4607
vn 0.6171 -0.1240 -0.7771
vn 0.5332 0.4472 -0.7181
vn 0.3908 -0.5062 -0.7688
vn -0.8500 0.4905 -0.1919
vn -0.8520 0.4846 -0.1983
vn -0.7721 0.6171 -0.1522
vn -0.7754 0.6067 -0.1751
vn 0.2278 0.7843 -0.5770
vn 0.2265 0.7837 -0.5784
vn 0.5003 0.6626 -0.5574
vn -0.9849 0.0143 -0.1724
vn -0.9854 0.0130 -0.1695
vn -0.3101 -0.1173 -0.9435
vn -0.3205 -0.1059 -0.9413
vn 0.9304 0.2611 -0.2574
vn 0.3355 -0.0579 -0.9403
vn -0.7004 -0.7021 -0.1282
vn -0.7031 -0.7004 -0.1230
vn 0.3165 0.0148 -0.9485
vn 0.3194 0.0137 -0.9475
vn 0.9698 0.0416 -0.2405
vn 0.9697 0.0416 -0.2406
vn 0.6222 0.7502 -0.2239
vn 0.6095 0.7565 -0.2373
vn 0.0551 0.9755 -0.2128
vn 0.0623 0.9772 -0.2028
vn 0.2372 0.2860 -0.9284
vn -0.1430 0.3608 -0.9216
vn -0.1484 0.3731 -0.9158
vn -0.5920 0.0767 -0.8023
vn -0.2564 0.9484 -0.1867
vn -0.2612 0.9528 -0.1549
vn -0.6627 0.7392 -0.1202
vn -0.7367 0.6497 -0.1875
vn -0.7395 0.6439 -0.1961
vn -0.5975 0.1773 -0.7820
vn 0.0265 0.3109 -0.9501
vn 0.0182 0.3220 -0.9466
vn -0.2387 -0.3428 -0.9086
vn 0.0257 -0.0541 -0.9982
vn -0.3057 -0.3385 -0.8899
vn -0.6185 0.0724 -0.7825
vn -1.0000 -0.0000 0.0000
vn -1.0000 0.0000 0.0000
vn 0.0000 -1.0000 0.0000
vn -0.0000 -1.0000 0.0000
vn 0.0134 -0.9999 -0.0036
vn 0.0078 -1.0000 0.0022
vn 0.1011 -0.9949 0.0032
vn -0.1536 0.8241 0.5452
vn -0.1536 0.8241 -0.5452
vn 0.3040 0.8461 0.4377
vn 0.3040 0.8461 -0.4377
vn -0.8200 -0.5367 0.1986
vn -0.8289 -0.5261 0.1900
vn -0.8280 -0.5266 -0.1927
vn -0.8232 -0.5388 -0.1790
vn 0.7795 -0.1709 0.6026
vn 0.7795 -0.1709 -0.6026
# 142 vertex normals

vt 0.9945 0.6039 0.0000
vt 0.9995 0.6748 0.0000
vt 0.8804 0.7297 0.0000
vt 0.8177 0.6924 0.0000
vt 0.9551 0.0603 0.0000
vt 0.8215 0.2083 0.0000
vt 0.8996 0.0307 0.0000
vt 0.8418 0.0061 0.0000
vt 0.7999 0.0799 0.0000
vt 0.7338 0.8097 0.0000
vt 0.7292 0.7404 0.0000
vt 0.7469 0.2779 0.0000
vt 0.7211 0.1708 0.0000
vt 0.7158 0.0583 0.0000
vt 0.6323 0.2567 0.0000
vt 0.6445 0.7937 0.0000
vt 0.6643 0.3360 0.0000
vt 0.6273 0.8831 0.0000
vt 0.5720 0.8654 0.0000
vt 0.5121 0.3218 0.0000
vt 0.5783 0.3915 0.0000
vt 0.3916 0.4064 0.0000
vt 0.3860 0.8802 0.0000
vt 0.4628 0.9474 0.0000
vt 0.4694 0.9881 0.0000
vt 0.7883 0.8834 0.0000
vt 0.7357 0.8107 0.0000
vt 0.7997 0.7978 0.0000
vt 0.8320 0.8514 0.0000
vt 0.8645 0.7939 0.0000
vt 0.8789 0.8170 0.0000
vt 0.6466 0.1060 0.0000
vt 0.5665 0.2083 0.0000
vt 0.9062 0.9121 0.0000
vt 0.9001 0.8578 0.0000
vt 0.9346 0.8576 0.0000
vt 0.9317 0.9123 0.0000
vt 0.9860 0.3295 0.0000
vt 0.9260 0.3921 0.0000
vt 0.8758 0.3164 0.0000
vt 0.9489 0.2863 0.0000
vt 0.1342 0.7352 0.0000
vt 0.1833 0.7138 0.0000
vt 0.1610 0.7887 0.0000
vt 0.8463 0.3302 0.0000
vt 0.9032 0.7952 0.0000
vt 0.9379 0.7939 0.0000
vt 0.8051 0.2725 0.0000
vt 0.8467 0.2559 0.0000
vt 0.1039 0.6745 0.0000
vt 0.1479 0.6508 0.0000
vt 0.0814 0.6296 0.0000
vt 0.1240 0.6060 0.0000
vt 0.0505 0.5678 0.0000
vt 0.0917 0.5461 0.0000
vt 0.8161 0.2235 0.0000
vt 0.2438 0.4855 0.0000
vt 0.2296 0.4527 0.0000
vt 0.3615 0.4363 0.0000
vt 0.3661 0.4552 0.0000
vt 0.2240 0.5303 0.0000
vt 0.0941 0.5423 0.0000
vt 0.1025 0.4989 0.0000
vt 0.2183 0.5120 0.0000
vt 0.0787 0.4987 0.0000
vt 0.1081 0.4810 0.0000
vt 0.2223 0.5009 0.0000
vt 0.0183 0.5034 0.0000
vt 0.0526 0.5068 0.0000
vt 0.8698 0.1793 0.0000
vt 0.9267 0.1797 0.0000
vt 0.8903 0.2214 0.0000
vt 0.9521 0.2217 0.0000
vt 0.2393 0.5152 0.0000
vt 0.0147 0.1571 0.0000
vt 0.0061 0.0881 0.0000
vt 0.1537 0.1031 0.0000
vt 0.1370 0.2044 0.0000
vt 0.2810 0.1160 0.0000
vt 0.3017 0.2322 0.0000
vt 0.4305 0.1312 0.0000
vt 0.4287 0.2075 0.0000
vt 0.6092 0.1493 0.0000
vt 0.0061 0.9380 0.0000
vt 0.1756 0.9336 0.0000
vt 0.0570 0.9875 0.0000
vt 0.1878 0.8617 0.0000
vt 0.0009 0.5039 0.0000
vt 0.0005 0.4391 0.0000
vt 0.1938 0.4558 0.0000
vt 0.0066 0.3766 0.0000
vt 0.0914 0.3752 0.0000
vt 0.2817 0.8253 0.0000
vt 0.3315 0.8737 0.0000
vt 0.2090 0.3498 0.0000
vt 0.2906 0.4238 0.0000
vt 0.1129 0.2911 0.0000
vt 0.3270 0.3131 0.0000
vt 0.3771 0.7952 0.0000
vt 0.3812 0.3792 0.0000
vt 0.4787 0.7864 0.0000
vt 0.4564 0.8400 0.0000
vt 0.4418 0.2388 0.0000
vt 0.5738 0.1737 0.0000
vt 0.4712 0.3304 0.0000
vt 0.6103 0.6542 0.0000
vt 0.6119 0.7563 0.0000
vt 0.6386 0.7876 0.0000
vt 0.8734 0.8983 0.0000
vt 0.8436 0.9585 0.0000
vt 0.8965 0.8376 0.0000
vt 0.1879 0.2533 0.0000
vt 0.3162 0.2321 0.0000
vt 0.9689 0.8613 0.0000
vt 0.9572 0.9147 0.0000
vt 0.8761 0.5871 0.0000
vt 0.8776 0.5301 0.0000
vt 0.9533 0.5073 0.0000
vt 0.9621 0.5977 0.0000
vt 0.0876 0.7616 0.0000
vt 0.9848 0.4994 0.0000
vt 0.9723 0.7988 0.0000
vt 0.9377 0.4420 0.0000
vt 0.9804 0.4286 0.0000
vt 0.0585 0.6955 0.0000
vt 0.0370 0.6495 0.0000
vt 0.0085 0.5878 0.0000
vt 0.9409 0.3975 0.0000
vt 0.3708 0.4741 0.0000
vt 0.2465 0.5211 0.0000
vt 0.8519 0.3463 0.0000
vt 0.8404 0.3616 0.0000
vt 0.7269 0.3347 0.0000
vt 0.7337 0.2910 0.0000
vt 0.7045 0.3269 0.0000
vt 0.8404 0.3734 0.0000
vt 0.7261 0.3534 0.0000
vt 0.0005 0.5328 0.0000
vt 0.8713 0.3972 0.0000
vt 0.8820 0.4428 0.0000
vt 0.8274 0.4334 0.0000
vt 0.8343 0.4821 0.0000
vt 0.8612 0.3657 0.0000
vt 0.0288 0.0186 0.0000
vt 0.1577 0.0005 0.0000
vt 0.3246 0.0064 0.0000
vt 0.4441 0.0561 0.0000
vt 0.7338 0.9229 0.0000
vt 0.6878 0.8677 0.0000
vt 0.7745 0.9866 0.0000
vt 0.2509 0.7920 0.0000
vt 0.1097 0.8626 0.0000
# 152 texture coords

o Box003
g Box003
usemtl wire_225198087
s off
f 1/1/1 2/2/1 3/3/1 
f 1/1/2 3/3/2 4/4/2 
f 1/5/3 4/6/3 5/7/3 
f 6/8/4 5/7/4 7/9/4 
f 7/9/5 5/7/5 4/6/5 
f 4/4/6 3/3/6 8/10/6 
f 8/10/7 9/11/7 4/4/7 
f 4/6/8 9/12/8 10/13/8 
f 4/6/9 10/13/9 7/9/9 
f 7/9/10 10/13/10 11/14/10 
f 10/13/11 9/12/11 12/15/11 
f 9/11/12 8/10/12 13/16/12 
f 9/12/13 13/17/13 12/15/13 
f 13/16/14 8/10/14 14/18/14 
f 14/18/15 15/19/15 13/16/15 
f 12/15/16 13/17/16 16/20/16 
f 16/20/17 15/21/17 17/22/17 
f 17/23/18 15/19/18 18/24/18 
f 18/24/19 15/19/19 19/25/19 
f 15/19/20 14/18/20 19/25/20 
f 20/26/21 1/27/21 5/28/21 
f 5/28/22 21/29/22 20/26/22 
f 21/29/23 5/28/23 6/30/23 
f 6/30/24 22/31/24 21/29/24 
f 23/32/25 10/13/25 12/15/25 
f 12/15/26 24/33/26 23/32/26 
f 24/33/27 12/15/27 16/20/27 
f 6/34/28 25/35/28 26/36/28 
f 26/36/29 22/37/29 6/34/29 
f 6/38/30 7/39/30 27/40/30 
f 27/40/31 25/41/31 6/38/31 
f 28/42/32 29/43/32 11/44/32 
f 29/45/33 27/40/33 7/39/33 
f 26/36/34 25/35/34 30/46/34 
f 30/46/35 31/47/35 26/36/35 
f 27/40/36 29/45/36 32/48/36 
f 32/48/37 33/49/37 27/40/37 
f 29/43/38 28/42/38 34/50/38 
f 34/50/39 32/51/39 29/43/39 
f 32/51/40 34/50/40 35/52/40 
f 35/52/41 36/53/41 32/51/41 
f 36/53/42 35/52/42 37/54/42 
f 37/54/43 38/55/43 36/53/43 
f 32/48/44 36/56/44 33/49/44 
f 31/57/45 30/58/45 39/59/45 
f 39/59/46 40/60/46 31/57/46 
f 39/61/47 30/62/47 41/63/47 
f 41/63/48 42/64/48 39/61/48 
f 41/63/49 30/62/49 43/65/49 
f 42/64/50 41/63/50 44/66/50 
f 44/66/51 45/67/51 42/64/51 
f 41/63/52 43/65/52 44/66/52 
f 44/68/53 43/69/53 38/55/53 
f 38/55/54 37/54/54 44/68/54 
f 38/70/55 43/71/55 46/72/55 
f 36/56/56 38/70/56 46/72/56 
f 46/72/57 33/49/57 36/56/57 
f 25/41/58 27/40/58 46/72/58 
f 27/40/59 33/49/59 46/72/59 
f 25/41/60 46/72/60 30/73/60 
f 46/72/61 43/71/61 30/73/61 
f 42/64/62 45/67/62 40/74/62 
f 40/74/62 39/61/62 42/64/62 
f 2/75/63 47/76/63 48/77/63 
f 48/77/63 3/78/63 2/75/63 
f 3/78/63 48/77/63 49/79/63 
f 49/79/63 8/80/63 3/78/63 
f 8/80/64 49/79/64 50/81/64 
f 50/81/65 14/82/65 8/80/65 
f 14/82/66 50/81/66 19/83/66 
f 51/84/67 52/85/67 53/86/67 
f 51/84/68 54/87/68 52/85/68 
f 51/88/69 55/89/69 54/90/69 
f 56/91/70 57/92/70 55/89/70 
f 57/92/71 54/90/71 55/89/71 
f 54/87/72 58/93/72 59/94/72 
f 59/94/73 52/85/73 54/87/73 
f 54/90/74 60/95/74 58/96/74 
f 54/90/75 57/92/75 60/95/75 
f 57/92/76 11/97/76 60/95/76 
f 60/95/77 61/98/77 58/96/77 
f 58/93/78 62/99/78 59/94/78 
f 58/96/79 61/98/79 62/100/79 
f 62/99/80 63/101/80 64/102/80 
f 64/102/81 59/94/81 62/99/81 
f 61/98/82 16/103/82 62/100/82 
f 16/103/83 17/104/83 63/105/83 
f 17/106/84 18/107/84 63/101/84 
f 18/107/85 19/108/85 63/101/85 
f 63/101/86 19/108/86 64/102/86 
f 20/26/87 21/29/87 55/109/87 
f 55/109/88 51/110/88 20/26/88 
f 21/29/89 22/31/89 56/111/89 
f 56/111/90 55/109/90 21/29/90 
f 23/112/91 24/113/91 61/98/91 
f 61/98/92 60/95/92 23/112/92 
f 24/113/93 16/103/93 61/98/93 
f 26/36/94 65/114/94 56/115/94 
f 56/115/95 22/37/95 26/36/95 
f 56/116/96 65/117/96 66/118/96 
f 66/118/97 57/119/97 56/116/97 
f 11/44/98 67/120/98 28/42/98 
f 57/119/99 66/118/99 67/121/99 
f 26/36/100 31/47/100 68/122/100 
f 68/122/101 65/114/101 26/36/101 
f 66/118/102 69/123/102 70/124/102 
f 70/124/103 67/121/103 66/118/103 
f 67/120/104 70/125/104 34/50/104 
f 34/50/105 28/42/105 67/120/105 
f 70/125/106 71/126/106 35/52/106 
f 35/52/107 34/50/107 70/125/107 
f 71/126/108 72/127/108 37/54/108 
f 37/54/109 35/52/109 71/126/109 
f 70/124/110 69/123/110 71/128/110 
f 31/57/46 40/60/46 73/129/46 
f 73/129/46 68/130/46 31/57/46 
f 73/131/111 74/132/111 75/133/111 
f 75/133/112 68/134/112 73/131/112 
f 75/133/113 76/135/113 68/134/113 
f 74/132/114 45/136/114 44/137/114 
f 44/137/115 75/133/115 74/132/115 
f 75/133/116 44/137/116 76/135/116 
f 44/68/117 37/54/117 72/127/117 
f 72/127/118 76/138/118 44/68/118 
f 72/139/119 77/140/119 76/141/119 
f 71/128/120 69/123/120 77/140/120 
f 77/140/121 72/139/121 71/128/121 
f 65/117/122 77/140/122 66/118/122 
f 66/118/123 77/140/123 69/123/123 
f 65/117/124 68/142/124 77/140/124 
f 77/140/125 68/142/125 76/141/125 
f 74/132/126 73/131/126 40/143/126 
f 40/143/127 45/136/127 74/132/127 
f 53/144/63 52/145/63 48/77/63 
f 48/77/128 47/76/128 53/144/128 
f 52/145/129 59/146/129 49/79/129 
f 49/79/63 48/77/63 52/145/63 
f 59/146/130 64/147/130 50/81/130 
f 50/81/131 49/79/131 59/146/131 
f 64/147/132 19/83/132 50/81/132 
f 10/13/133 23/32/133 11/14/133 
f 11/97/134 23/112/134 60/95/134 
f 13/17/135 15/21/135 16/20/135 
f 16/103/136 63/105/136 62/100/136 
f 1/27/137 20/26/137 47/148/137 
f 47/148/138 2/149/138 1/27/138 
f 20/26/139 51/110/139 53/150/139 
f 53/150/140 47/148/140 20/26/140 
f 29/43/141 7/151/141 11/44/141 
f 11/44/142 57/152/142 67/120/142 
# 150 faces

