# 3ds Max Wavefront OBJ Exporter v0.97b - (c)2007 guruware
# File Created: 24.06.2020 09:40:15

mtllib Canard.mtl

#
# object Box001
#

v  -0.1991 0.0528 0.0488
v  -0.1840 0.0054 0.0345
v  -0.0539 0.0054 0.0745
v  -0.0252 0.0528 0.0937
v  -0.1757 0.0935 0.0408
v  -0.1467 0.1298 0.0118
v  -0.0797 0.1173 0.0332
v  0.0017 0.0054 0.0869
v  0.0472 0.0054 0.0905
v  0.0555 0.0528 0.0995
v  0.0152 0.1425 0.0472
v  0.0152 0.1425 -0.0079
v  -0.0709 0.1197 -0.0079
v  0.1139 0.1228 0.0291
v  0.1446 0.0054 0.0797
v  0.1353 0.0528 0.0887
v  0.2177 0.0066 0.0533
v  0.2110 0.0406 0.0597
v  0.2065 0.0772 0.0242
v  0.3135 0.0774 0.0109
v  0.2974 0.0463 -0.0079
v  0.3186 0.0209 -0.0079
v  -0.1991 0.0528 -0.0079
v  -0.1840 0.0054 -0.0079
v  -0.1757 0.0935 -0.0079
v  -0.1467 0.1298 -0.0079
v  0.1139 0.1228 -0.0079
v  0.2065 0.0772 -0.0079
v  0.3135 0.0774 -0.0079
v  -0.1477 0.1378 0.0134
v  -0.1477 0.1378 -0.0079
v  -0.0815 0.1256 0.0346
v  -0.0703 0.1264 -0.0079
v  -0.0519 0.1987 -0.0079
v  -0.0615 0.1940 0.0314
v  -0.0790 0.1254 0.0336
v  -0.0848 0.1879 0.0394
v  -0.1414 0.1732 -0.0079
v  -0.1414 0.1732 0.0190
v  -0.1772 0.2093 0.0204
v  -0.1772 0.2093 -0.0079
v  -0.0639 0.2492 0.0314
v  -0.0967 0.2404 0.0426
v  -0.0543 0.2538 -0.0079
v  -0.0892 0.2820 -0.0079
v  -0.0939 0.2741 0.0314
v  -0.1516 0.2859 -0.0079
v  -0.1493 0.2772 0.0314
v  -0.2827 0.1984 0.0078
v  -0.2827 0.1984 -0.0079
v  -0.1924 0.2374 0.0065
v  -0.2827 0.2133 0.0019
v  -0.1794 0.2476 0.0151
v  -0.1924 0.2397 -0.0079
v  -0.2827 0.2153 -0.0079
v  -0.1440 0.2407 0.0438
v  -0.0488 0.0054 -0.0079
v  0.0099 0.0054 -0.0079
v  0.0541 0.0054 -0.0079
v  0.1459 0.0054 -0.0079
v  0.2130 0.0063 -0.0079
v  -0.1991 0.0528 -0.0675
v  -0.0539 0.0054 -0.0903
v  -0.1840 0.0054 -0.0532
v  -0.0252 0.0528 -0.1095
v  -0.1757 0.0935 -0.0565
v  -0.1467 0.1298 -0.0276
v  -0.0797 0.1173 -0.0490
v  0.0017 0.0054 -0.1027
v  0.0555 0.0528 -0.1153
v  0.0472 0.0054 -0.1063
v  0.0152 0.1425 -0.0629
v  0.1139 0.1228 -0.0449
v  0.1446 0.0054 -0.0955
v  0.1353 0.0528 -0.1045
v  0.2110 0.0406 -0.0755
v  0.2177 0.0066 -0.0691
v  0.2065 0.0772 -0.0400
v  0.3135 0.0774 -0.0267
v  -0.1477 0.1378 -0.0292
v  -0.0815 0.1256 -0.0504
v  -0.0790 0.1254 -0.0493
v  -0.0615 0.1940 -0.0472
v  -0.0848 0.1879 -0.0552
v  -0.1772 0.2093 -0.0362
v  -0.1414 0.1732 -0.0348
v  -0.0967 0.2404 -0.0583
v  -0.0639 0.2492 -0.0472
v  -0.0939 0.2741 -0.0472
v  -0.1493 0.2772 -0.0472
v  -0.2827 0.1984 -0.0236
v  -0.2827 0.2133 -0.0177
v  -0.1924 0.2374 -0.0223
v  -0.1794 0.2476 -0.0309
v  -0.1440 0.2407 -0.0596
# 95 vertices

vn -0.2748 -0.3561 0.8931
vn -0.2433 -0.2335 0.9414
vn -0.2373 0.3175 0.9181
vn -0.1090 0.6720 0.7325
vn -0.0975 0.6360 0.7655
vn -0.2104 -0.2544 0.9439
vn -0.0775 -0.1843 0.9798
vn -0.0705 -0.1737 0.9823
vn -0.0627 0.4821 0.8738
vn -0.2601 0.5348 0.8040
vn -0.2564 0.9666 -0.0000
vn -0.2552 0.9669 0.0031
vn 0.2567 0.5711 0.7797
vn 0.1080 -0.2034 0.9731
vn 0.1327 -0.1593 0.9783
vn 0.1006 0.6630 0.7418
vn 0.3390 -0.1104 0.9343
vn 0.3576 0.6667 0.6539
vn 0.3639 0.6711 0.6459
vn 0.0870 0.6990 0.7098
vn 0.5076 -0.6228 0.5954
vn 0.5332 0.4472 0.7181
vn 0.5237 -0.0581 0.8499
vn -0.9528 -0.3038 -0.0000
vn -0.9528 -0.3038 0.0000
vn -0.8661 0.4998 -0.0000
vn -0.8661 0.4998 0.0000
vn -0.7812 0.6243 0.0000
vn -0.7812 0.6243 -0.0000
vn 0.1955 0.9807 -0.0000
vn 0.4414 0.8973 -0.0000
vn -0.0021 1.0000 -0.0000
vn 0.8876 -0.4607 -0.0000
vn -0.9923 -0.1235 -0.0000
vn -0.3346 -0.2277 0.9144
vn -0.3346 -0.2280 0.9144
vn 0.9493 -0.2410 0.2017
vn 0.9522 -0.2365 0.1933
vn 0.3770 -0.0674 0.9237
vn 0.3347 -0.0543 0.9408
vn -0.7110 -0.7032 -0.0000
vn 0.3194 0.0137 0.9475
vn 0.3165 0.0148 0.9485
vn 0.9697 0.0416 0.2406
vn 0.9698 0.0416 0.2405
vn 0.6095 0.7565 0.2373
vn 0.6222 0.7502 0.2239
vn 0.0623 0.9772 0.2028
vn 0.0551 0.9755 0.2128
vn 0.2372 0.2860 0.9284
vn 0.1025 -0.9947 0.0000
vn 0.1025 -0.9947 -0.0000
vn -0.1484 0.3731 0.9158
vn -0.1430 0.3608 0.9216
vn -0.5920 0.0767 0.8023
vn -0.2612 0.9528 0.1549
vn -0.2564 0.9484 0.1867
vn -0.6627 0.7392 0.1202
vn -0.7395 0.6439 0.1961
vn -0.7367 0.6497 0.1875
vn -0.5975 0.1773 0.7820
vn 0.0182 0.3220 0.9466
vn 0.0265 0.3109 0.9501
vn -0.2387 -0.3428 0.9086
vn 0.0257 -0.0541 0.9982
vn -0.3057 -0.3385 0.8899
vn -0.6185 0.0724 0.7825
vn -1.0000 0.0000 -0.0000
vn -0.9847 0.1745 -0.0000
vn -0.3169 -0.0918 0.9440
vn -0.3186 -0.0895 0.9437
vn 0.3763 -0.0735 0.9236
vn 0.9749 -0.0938 0.2020
vn 0.9751 -0.0920 0.2018
vn -0.0000 -1.0000 -0.0000
vn 0.0000 -1.0000 -0.0000
vn 0.0000 -1.0000 0.0000
vn -0.0000 -1.0000 0.0000
vn 0.0141 -0.9999 0.0002
vn 0.0180 -0.9998 0.0032
vn 0.1369 -0.9906 -0.0060
vn -0.2565 -0.3523 -0.9000
vn -0.2276 -0.2435 -0.9428
vn -0.2181 0.3693 -0.9034
vn -0.1090 0.6720 -0.7325
vn -0.0975 0.6360 -0.7655
vn -0.2104 -0.2544 -0.9439
vn -0.0705 -0.1737 -0.9823
vn -0.0775 -0.1843 -0.9798
vn -0.0627 0.4821 -0.8738
vn -0.2601 0.5348 -0.8040
vn -0.2552 0.9669 -0.0031
vn 0.2567 0.5711 -0.7797
vn 0.1080 -0.2034 -0.9731
vn 0.1327 -0.1593 -0.9783
vn 0.1006 0.6630 -0.7418
vn 0.3390 -0.1104 -0.9343
vn 0.3639 0.6711 -0.6459
vn 0.3576 0.6667 -0.6539
vn 0.0870 0.6990 -0.7098
vn 0.5076 -0.6228 -0.5954
vn 0.5332 0.4472 -0.7181
vn 0.5237 -0.0581 -0.8499
vn -0.9923 -0.1235 0.0000
vn -0.3346 -0.2280 -0.9144
vn -0.3346 -0.2277 -0.9144
vn 0.9522 -0.2365 -0.1933
vn 0.9493 -0.2410 -0.2017
vn 0.3347 -0.0543 -0.9408
vn 0.3770 -0.0674 -0.9237
vn -0.7110 -0.7032 0.0000
vn 0.3165 0.0148 -0.9485
vn 0.3194 0.0137 -0.9475
vn 0.9698 0.0416 -0.2405
vn 0.9697 0.0416 -0.2406
vn 0.6222 0.7502 -0.2239
vn 0.6095 0.7565 -0.2373
vn 0.0551 0.9755 -0.2128
vn 0.0623 0.9772 -0.2028
vn 0.2372 0.2860 -0.9284
vn -0.1430 0.3608 -0.9216
vn -0.1484 0.3731 -0.9158
vn -0.5920 0.0767 -0.8023
vn -0.2564 0.9484 -0.1867
vn -0.2612 0.9528 -0.1549
vn -0.6627 0.7392 -0.1202
vn -0.7367 0.6497 -0.1875
vn -0.7395 0.6439 -0.1961
vn -0.5975 0.1773 -0.7820
vn 0.0265 0.3109 -0.9501
vn 0.0182 0.3220 -0.9466
vn -0.2387 -0.3428 -0.9086
vn 0.0257 -0.0541 -0.9982
vn -0.3057 -0.3385 -0.8899
vn -0.6185 0.0724 -0.7825
vn -1.0000 -0.0000 0.0000
vn -1.0000 0.0000 0.0000
vn -0.9847 0.1745 0.0000
vn -0.3186 -0.0895 -0.9437
vn -0.3169 -0.0918 -0.9440
vn 0.3763 -0.0735 -0.9236
vn 0.9751 -0.0920 -0.2018
vn 0.9749 -0.0938 -0.2020
vn 0.0180 -0.9998 -0.0032
vn 0.0141 -0.9999 -0.0002
vn 0.1369 -0.9906 0.0060
# 146 vertex normals

vt 0.6381 0.2554 0.0000
vt 0.6054 0.1896 0.0000
vt 0.7488 0.0687 0.0000
vt 0.8283 0.0933 0.0000
vt 0.7039 0.2906 0.0000
vt 0.7750 0.3216 0.0000
vt 0.8351 0.2402 0.0000
vt 0.8110 0.0173 0.0000
vt 0.2032 0.4109 0.0000
vt 0.2585 0.4664 0.0000
vt 0.2390 0.5280 0.0000
vt 0.1724 0.5189 0.0000
vt 0.0494 0.4247 0.0000
vt 0.1092 0.2974 0.0000
vt 0.4046 0.2806 0.0000
vt 0.5356 0.3311 0.0000
vt 0.4976 0.3992 0.0000
vt 0.3874 0.3377 0.0000
vt 0.0196 0.5679 0.0000
vt 0.1965 0.6576 0.0000
vt 0.1391 0.6215 0.0000
vt 0.1552 0.7621 0.0000
vt 0.1120 0.7338 0.0000
vt 0.0387 0.7170 0.0000
vt 0.0005 0.8678 0.0000
vt 0.0548 0.8839 0.0000
vt 0.0858 0.9193 0.0000
vt 0.5494 0.8042 0.0000
vt 0.6098 0.7623 0.0000
vt 0.6429 0.8596 0.0000
vt 0.5760 0.8823 0.0000
vt 0.6836 0.7729 0.0000
vt 0.7058 0.8382 0.0000
vt 0.7591 0.7906 0.0000
vt 0.7681 0.8170 0.0000
vt 0.6476 0.4231 0.0000
vt 0.6221 0.4688 0.0000
vt 0.7720 0.5004 0.0000
vt 0.7498 0.5402 0.0000
vt 0.8951 0.5909 0.0000
vt 0.8821 0.6141 0.0000
vt 0.0059 0.8940 0.0000
vt 0.1116 0.9273 0.0000
vt 0.1013 0.9261 0.0000
vt 0.1091 0.8957 0.0000
vt 0.1208 0.8986 0.0000
vt 0.1105 0.9956 0.0000
vt 0.1102 0.9971 0.0000
vt 0.8612 0.4530 0.0000
vt 0.7673 0.3983 0.0000
vt 0.8035 0.3511 0.0000
vt 0.8965 0.4007 0.0000
vt 0.9462 0.9572 0.0000
vt 0.9443 0.9607 0.0000
vt 0.8472 0.9250 0.0000
vt 0.8749 0.9004 0.0000
vt 0.8510 0.3013 0.0000
vt 0.8168 0.2845 0.0000
vt 0.8466 0.2190 0.0000
vt 0.8827 0.2366 0.0000
vt 0.7832 0.8757 0.0000
vt 0.8231 0.8439 0.0000
vt 0.7028 0.3608 0.0000
vt 0.7309 0.3100 0.0000
vt 0.6524 0.3315 0.0000
vt 0.6790 0.2813 0.0000
vt 0.5828 0.2910 0.0000
vt 0.6092 0.2435 0.0000
vt 0.7791 0.8186 0.0000
vt 0.4303 0.8240 0.0000
vt 0.4700 0.8297 0.0000
vt 0.4309 0.9760 0.0000
vt 0.4090 0.9728 0.0000
vt 0.8987 0.1959 0.0000
vt 0.8239 0.0674 0.0000
vt 0.8728 0.0552 0.0000
vt 0.9148 0.1812 0.0000
vt 0.8615 0.0306 0.0000
vt 0.8939 0.0524 0.0000
vt 0.9282 0.1800 0.0000
vt 0.5102 0.2487 0.0000
vt 0.5458 0.2302 0.0000
vt 0.8232 0.7526 0.0000
vt 0.8853 0.7343 0.0000
vt 0.8594 0.7918 0.0000
vt 0.9446 0.8432 0.0000
vt 0.9269 0.7718 0.0000
vt 0.9217 0.2044 0.0000
vt 0.8015 0.3337 0.0000
vt 0.8286 0.3470 0.0000
vt 0.9929 0.8654 0.0000
vt 0.1196 0.9985 0.0000
vt 0.1362 0.9026 0.0000
vt 0.1511 0.9063 0.0000
vt 0.0395 0.2972 0.0000
vt 0.0228 0.2163 0.0000
vt 0.2105 0.1775 0.0000
vt 0.2270 0.2933 0.0000
vt 0.2919 0.1607 0.0000
vt 0.3077 0.2946 0.0000
vt 0.3532 0.1480 0.0000
vt 0.3719 0.2865 0.0000
vt 0.4806 0.1217 0.0000
vt 0.5039 0.2436 0.0000
vt 0.5737 0.1024 0.0000
vt 0.5979 0.1860 0.0000
vt 0.7217 0.0718 0.0000
vt 0.2101 0.7173 0.0000
vt 0.2520 0.9303 0.0000
vt 0.1573 0.7684 0.0000
vt 0.3351 0.9337 0.0000
vt 0.2839 0.7061 0.0000
vt 0.3613 0.7007 0.0000
vt 0.3907 0.7975 0.0000
vt 0.2934 0.9995 0.0000
vt 0.5688 0.7291 0.0000
vt 0.4978 0.6422 0.0000
vt 0.5554 0.6074 0.0000
vt 0.5976 0.6563 0.0000
vt 0.4221 0.7773 0.0000
vt 0.5274 0.8706 0.0000
vt 0.3478 0.3823 0.0000
vt 0.4595 0.4673 0.0000
vt 0.3381 0.6576 0.0000
vt 0.4650 0.5052 0.0000
vt 0.4266 0.5611 0.0000
vt 0.3574 0.4686 0.0000
vt 0.3858 0.4255 0.0000
vt 0.2966 0.5130 0.0000
vt 0.2019 0.3897 0.0000
vt 0.2455 0.3534 0.0000
vt 0.2599 0.3086 0.0000
vt 0.6026 0.9605 0.0000
vt 0.6760 0.9569 0.0000
vt 0.7280 0.9034 0.0000
vt 0.7771 0.8434 0.0000
vt 0.5965 0.5145 0.0000
vt 0.7276 0.5799 0.0000
vt 0.8692 0.6374 0.0000
vt 0.1965 0.3635 0.0000
vt 0.1264 0.8691 0.0000
vt 0.1168 0.8652 0.0000
vt 0.1585 0.8071 0.0000
vt 0.1581 0.8085 0.0000
vt 0.8332 0.5095 0.0000
vt 0.7441 0.4532 0.0000
vt 0.6139 0.6473 0.0000
vt 0.6879 0.7005 0.0000
vt 0.6717 0.7338 0.0000
vt 0.6110 0.6501 0.0000
vt 0.9187 0.2543 0.0000
vt 0.8852 0.3180 0.0000
vt 0.7564 0.7350 0.0000
vt 0.7366 0.7820 0.0000
vt 0.6725 0.4103 0.0000
vt 0.6220 0.3794 0.0000
vt 0.5546 0.3374 0.0000
vt 0.7926 0.7705 0.0000
vt 0.3870 0.9697 0.0000
vt 0.3906 0.8183 0.0000
vt 0.9617 0.1789 0.0000
vt 0.9404 0.1743 0.0000
vt 0.9137 0.0442 0.0000
vt 0.9621 0.0303 0.0000
vt 0.9110 0.0173 0.0000
vt 0.5117 0.2889 0.0000
vt 0.8442 0.7102 0.0000
vt 0.7966 0.6860 0.0000
vt 0.8450 0.6454 0.0000
vt 0.7240 0.6179 0.0000
vt 0.7976 0.6156 0.0000
vt 0.9461 0.1979 0.0000
vt 0.8557 0.3603 0.0000
vt 0.6896 0.5774 0.0000
vt 0.1674 0.8103 0.0000
vt 0.0061 0.1355 0.0000
vt 0.1798 0.0646 0.0000
vt 0.2533 0.0315 0.0000
vt 0.3154 0.0134 0.0000
vt 0.4537 0.0005 0.0000
vt 0.5627 0.0161 0.0000
# 181 texture coords

o Box001
g Box001
usemtl wire_225198087
s off
f 1/1/1 2/2/1 3/3/1 
f 1/1/2 3/3/2 4/4/2 
f 1/1/3 4/4/3 5/5/3 
f 6/6/4 5/5/4 7/7/4 
f 7/7/5 5/5/5 4/4/5 
f 3/3/6 8/8/6 4/4/6 
f 4/9/7 8/10/7 9/11/7 
f 9/11/8 10/12/8 4/9/8 
f 4/9/9 10/12/9 11/13/9 
f 4/9/10 11/13/10 7/14/10 
f 7/15/11 11/16/11 12/17/11 
f 12/17/12 13/18/12 7/15/12 
f 11/13/13 10/12/13 14/19/13 
f 10/12/14 9/11/14 15/20/14 
f 10/12/15 15/20/15 16/21/15 
f 10/12/16 16/21/16 14/19/16 
f 16/21/17 15/20/17 17/22/17 
f 17/22/17 18/23/17 16/21/17 
f 14/19/18 16/21/18 18/23/18 
f 18/23/19 19/24/19 14/19/19 
f 19/24/20 18/23/20 20/25/20 
f 20/25/21 18/23/21 21/26/21 
f 21/26/22 18/23/22 22/27/22 
f 18/23/23 17/22/23 22/27/23 
s 64
f 2/28/24 1/29/24 23/30/24 
f 23/30/24 24/31/25 2/28/24 
s off
f 23/30/26 1/29/26 5/32/26 
f 5/32/27 25/33/27 23/30/27 
f 25/33/28 5/32/28 6/34/28 
f 6/34/29 26/35/29 25/33/29 
f 12/17/30 11/16/30 14/36/30 
f 14/36/30 27/37/30 12/17/30 
f 27/37/31 14/36/31 19/38/31 
f 19/38/31 28/39/31 27/37/31 
f 28/39/32 19/38/32 20/40/32 
f 20/40/32 29/41/32 28/39/32 
f 20/25/33 21/26/33 29/42/33 
f 6/43/34 30/44/34 31/45/34 
f 31/45/34 26/46/34 6/43/34 
f 6/43/35 7/47/35 32/48/35 
f 32/48/36 30/44/36 6/43/36 
f 33/49/37 34/50/37 35/51/37 
f 35/51/38 36/52/38 33/49/38 
f 32/53/39 36/54/39 35/55/39 
f 35/55/40 37/56/40 32/53/40 
f 38/57/41 39/58/41 40/59/41 
f 40/59/41 41/60/41 38/57/41 
f 37/56/42 35/55/42 42/61/42 
f 42/61/43 43/62/43 37/56/43 
f 35/51/44 34/50/44 44/63/44 
f 44/63/45 42/64/45 35/51/45 
f 42/64/46 44/63/46 45/65/46 
f 45/65/47 46/66/47 42/64/47 
f 46/66/48 45/65/48 47/67/48 
f 47/67/49 48/68/49 46/66/49 
f 42/61/50 46/69/50 43/62/50 
f 41/70/51 40/71/51 49/72/51 
f 49/72/52 50/73/52 41/70/52 
f 49/74/53 40/75/53 51/76/53 
f 51/76/54 52/77/54 49/74/54 
f 51/76/55 40/75/55 53/78/55 
f 52/77/56 51/76/56 54/79/56 
f 54/79/57 55/80/57 52/77/57 
f 51/76/58 53/78/58 54/79/58 
f 54/81/59 53/82/59 48/68/59 
f 48/68/60 47/67/60 54/81/60 
f 48/83/61 53/84/61 56/85/61 
f 46/69/62 48/83/62 56/85/62 
f 56/85/63 43/62/63 46/69/63 
f 39/86/64 37/56/64 56/85/64 
f 37/56/65 43/62/65 56/85/65 
f 39/86/66 56/85/66 40/87/66 
f 56/85/67 53/84/67 40/87/67 
f 52/77/68 55/80/68 50/88/68 
f 50/88/68 49/74/68 52/77/68 
f 30/89/69 39/58/69 38/57/69 
f 38/57/69 31/90/69 30/89/69 
f 37/56/70 39/86/70 30/91/70 
f 30/91/71 32/53/71 37/56/71 
f 32/48/72 7/47/72 36/92/72 
f 36/92/73 7/47/73 13/93/73 
f 13/93/74 33/94/74 36/92/74 
f 2/95/75 24/96/75 57/97/75 
f 57/97/76 3/98/76 2/95/76 
f 3/98/76 57/97/76 58/99/76 
f 58/99/77 8/100/77 3/98/77 
f 8/100/77 58/99/77 59/101/77 
f 59/101/78 9/102/78 8/100/78 
f 9/102/77 59/101/77 60/103/77 
f 60/103/75 15/104/75 9/102/75 
f 15/104/79 60/103/79 61/105/79 
f 61/105/80 17/106/80 15/104/80 
f 17/106/81 61/105/81 22/107/81 
f 62/108/82 63/109/82 64/110/82 
f 62/108/83 65/111/83 63/109/83 
f 62/108/84 66/112/84 65/111/84 
f 67/113/85 68/114/85 66/112/85 
f 68/114/86 65/111/86 66/112/86 
f 63/109/87 65/111/87 69/115/87 
f 65/116/88 70/117/88 71/118/88 
f 71/118/89 69/119/89 65/116/89 
f 65/116/90 72/120/90 70/117/90 
f 65/116/91 68/121/91 72/120/91 
f 68/122/92 13/18/92 12/17/92 
f 12/17/11 72/123/11 68/122/11 
f 72/120/93 73/124/93 70/117/93 
f 70/117/94 74/125/94 71/118/94 
f 70/117/95 75/126/95 74/125/95 
f 70/117/96 73/124/96 75/126/96 
f 75/126/97 76/127/97 77/128/97 
f 77/128/97 74/125/97 75/126/97 
f 73/124/98 78/129/98 76/127/98 
f 76/127/99 75/126/99 73/124/99 
f 78/129/100 79/130/100 76/127/100 
f 79/130/101 21/131/101 76/127/101 
f 21/131/102 22/132/102 76/127/102 
f 76/127/103 22/132/103 77/128/103 
s 64
f 64/133/25 24/31/25 23/30/24 
f 23/30/24 62/134/24 64/133/25 
s off
f 23/30/27 25/33/27 66/135/27 
f 66/135/26 62/134/26 23/30/26 
f 25/33/28 26/35/28 67/136/28 
f 67/136/28 66/135/28 25/33/28 
f 12/17/30 27/37/30 73/137/30 
f 73/137/30 72/123/30 12/17/30 
f 27/37/31 28/39/31 78/138/31 
f 78/138/31 73/137/31 27/37/31 
f 28/39/32 29/41/32 79/139/32 
f 79/139/32 78/138/32 28/39/32 
f 79/130/33 29/140/33 21/131/33 
f 67/141/104 26/46/104 31/45/104 
f 31/45/34 80/142/34 67/141/34 
f 67/141/105 80/142/105 81/143/105 
f 81/143/106 68/144/106 67/141/106 
f 33/49/107 82/145/107 83/146/107 
f 83/146/108 34/50/108 33/49/108 
f 81/147/109 84/148/109 83/149/109 
f 83/149/110 82/150/110 81/147/110 
f 38/57/111 41/60/111 85/151/111 
f 85/151/111 86/152/111 38/57/111 
f 84/148/112 87/153/112 88/154/112 
f 88/154/113 83/149/113 84/148/113 
f 83/146/114 88/155/114 44/63/114 
f 44/63/115 34/50/115 83/146/115 
f 88/155/116 89/156/116 45/65/116 
f 45/65/117 44/63/117 88/155/117 
f 89/156/118 90/157/118 47/67/118 
f 47/67/119 45/65/119 89/156/119 
f 88/154/120 87/153/120 89/158/120 
f 41/70/52 50/73/52 91/159/52 
f 91/159/52 85/160/52 41/70/52 
f 91/161/121 92/162/121 93/163/121 
f 93/163/122 85/164/122 91/161/122 
f 93/163/123 94/165/123 85/164/123 
f 92/162/124 55/80/124 54/79/124 
f 54/79/125 93/163/125 92/162/125 
f 93/163/126 54/79/126 94/165/126 
f 54/81/127 47/67/127 90/157/127 
f 90/157/128 94/166/128 54/81/128 
f 90/167/129 95/168/129 94/169/129 
f 89/158/130 87/153/130 95/168/130 
f 95/168/131 90/167/131 89/158/131 
f 86/170/132 95/168/132 84/148/132 
f 84/148/133 95/168/133 87/153/133 
f 86/170/134 85/171/134 95/168/134 
f 95/168/135 85/171/135 94/169/135 
f 92/162/136 91/161/136 50/172/136 
f 50/172/137 55/80/137 92/162/137 
f 80/173/69 31/90/69 38/57/69 
f 38/57/138 86/152/138 80/173/138 
f 84/148/139 81/147/139 80/174/139 
f 80/174/140 86/170/140 84/148/140 
f 81/143/141 82/175/141 68/144/141 
f 82/175/142 33/94/142 13/93/142 
f 13/93/143 68/144/143 82/175/143 
f 64/176/76 63/177/76 57/97/76 
f 57/97/77 24/96/77 64/176/77 
f 63/177/76 69/178/76 58/99/76 
f 58/99/76 57/97/76 63/177/76 
f 69/178/76 71/179/76 59/101/76 
f 59/101/76 58/99/76 69/178/76 
f 71/179/76 74/180/76 60/103/76 
f 60/103/76 59/101/76 71/179/76 
f 74/180/144 77/181/144 61/105/144 
f 61/105/145 60/103/145 74/180/145 
f 77/181/146 22/107/146 61/105/146 
# 186 faces

